# xmcd CD database file
#
# Track frame offsets:
#	150
#	57937
#	78177
#	114925
#	143825
#	161972
#	180397
#	217410
#	240792
#
# Disc length: 3839 seconds
#
# Revision: 0
# Processed by: cddbd v1.5.2PL0 Copyright (c) Steve Scherf et al.
# Submitted via: CDex 1.70beta3
#
DISCID=730efd09
DTITLE=Togashi Masahiko - Scene
DYEAR=1987
DGENRE=Jazz
TTITLE0=Scene
TTITLE1=Song for Twilight
TTITLE2=Chromatic lady and Pentatonic guy
TTITLE3=Tears
TTITLE4=Hoy Hoy
TTITLE5=Song of Nothing
TTITLE6=In the Pot
TTITLE7=Typhoon
TTITLE8=Midnight Talking to Me
EXTD=YEAR: 1987
EXTT0=
EXTT1=
EXTT2=
EXTT3=
EXTT4=
EXTT5=
EXTT6=
EXTT7=
EXTT8=
PLAYORDER=
